<svg width="475" height="115" viewBox="0 0 475 115" fill="none" xmlns="http://www.w3.org/2000/svg">
<mask id="path-1-outside-1_3614_18577" maskUnits="userSpaceOnUse" x="0" y="0" width="475" height="115" fill="black">
<rect fill="white" width="475" height="115"/>
<path d="M34.256 112.656C27.724 112.656 21.698 111.46 16.178 109.068C10.75 106.584 6.288 103.088 2.792 98.58L15.212 83.676C17.88 87.172 20.686 89.84 23.63 91.68C26.574 93.428 29.748 94.302 33.152 94.302C42.26 94.302 46.814 88.966 46.814 78.294V32.34H12.866V14.4H69.032V77.052C69.032 89.012 66.088 97.936 60.2 103.824C54.312 109.712 45.664 112.656 34.256 112.656ZM123.922 112.104C117.758 112.104 112.238 110.908 107.362 108.516C102.578 106.124 98.8522 102.49 96.1842 97.614C93.5162 92.646 92.1822 86.344 92.1822 78.708V36.756H113.71V75.534C113.71 81.698 114.998 86.252 117.574 89.196C120.242 92.048 123.968 93.474 128.752 93.474C132.064 93.474 135.008 92.784 137.584 91.404C140.16 89.932 142.184 87.724 143.656 84.78C145.128 81.744 145.864 77.972 145.864 73.464V36.756H167.392V111H146.968V90.576L150.694 96.51C148.21 101.662 144.53 105.572 139.654 108.24C134.87 110.816 129.626 112.104 123.922 112.104ZM235.462 35.652C241.35 35.652 246.594 36.848 251.194 39.24C255.886 41.54 259.566 45.128 262.234 50.004C264.902 54.788 266.236 60.952 266.236 68.496V111H244.708V71.808C244.708 65.828 243.374 61.412 240.706 58.56C238.13 55.708 234.45 54.282 229.666 54.282C226.262 54.282 223.18 55.018 220.42 56.49C217.752 57.87 215.636 60.032 214.072 62.976C212.6 65.92 211.864 69.692 211.864 74.292V111H190.336V36.756H210.898V57.318L207.034 51.108C209.702 46.14 213.52 42.322 218.488 39.654C223.456 36.986 229.114 35.652 235.462 35.652ZM288.75 111V36.756H310.278V111H288.75ZM299.514 26.406C295.558 26.406 292.338 25.256 289.854 22.956C287.37 20.656 286.128 17.804 286.128 14.4C286.128 10.996 287.37 8.14399 289.854 5.844C292.338 3.54399 295.558 2.39399 299.514 2.39399C303.47 2.39399 306.69 3.49799 309.174 5.706C311.658 7.822 312.9 10.582 312.9 13.986C312.9 17.574 311.658 20.564 309.174 22.956C306.782 25.256 303.562 26.406 299.514 26.406ZM368.586 112.104C360.674 112.104 353.636 110.448 347.472 107.136C341.4 103.824 336.57 99.316 332.982 93.612C329.486 87.816 327.738 81.238 327.738 73.878C327.738 66.426 329.486 59.848 332.982 54.144C336.57 48.348 341.4 43.84 347.472 40.62C353.636 37.308 360.674 35.652 368.586 35.652C376.406 35.652 383.398 37.308 389.562 40.62C395.726 43.84 400.556 48.302 404.052 54.006C407.548 59.71 409.296 66.334 409.296 73.878C409.296 81.238 407.548 87.816 404.052 93.612C400.556 99.316 395.726 103.824 389.562 107.136C383.398 110.448 376.406 112.104 368.586 112.104ZM368.586 94.44C372.174 94.44 375.394 93.612 378.246 91.956C381.098 90.3 383.352 87.954 385.008 84.918C386.664 81.79 387.492 78.11 387.492 73.878C387.492 69.554 386.664 65.874 385.008 62.838C383.352 59.802 381.098 57.456 378.246 55.8C375.394 54.144 372.174 53.316 368.586 53.316C364.998 53.316 361.778 54.144 358.926 55.8C356.074 57.456 353.774 59.802 352.026 62.838C350.37 65.874 349.542 69.554 349.542 73.878C349.542 78.11 350.37 81.79 352.026 84.918C353.774 87.954 356.074 90.3 358.926 91.956C361.778 93.612 364.998 94.44 368.586 94.44ZM426.686 111V36.756H447.248V57.732L444.35 51.66C446.558 46.416 450.1 42.46 454.976 39.792C459.852 37.032 465.786 35.652 472.778 35.652V55.524C471.858 55.432 471.03 55.386 470.294 55.386C469.558 55.294 468.776 55.248 467.948 55.248C462.06 55.248 457.276 56.95 453.596 60.354C450.008 63.666 448.214 68.864 448.214 75.948V111H426.686Z"/>
</mask>
<path d="M16.178 109.068L15.3458 110.887L15.3642 110.895L15.3828 110.903L16.178 109.068ZM2.792 98.58L1.25556 97.2996L0.226123 98.535L1.21156 99.8056L2.792 98.58ZM15.212 83.676L16.8019 82.4627L15.2807 80.4694L13.6756 82.3956L15.212 83.676ZM23.63 91.68L22.57 93.376L22.5893 93.3881L22.6089 93.3997L23.63 91.68ZM46.814 32.34H48.814V30.34H46.814V32.34ZM12.866 32.34H10.866V34.34H12.866V32.34ZM12.866 14.4V12.4H10.866V14.4H12.866ZM69.032 14.4H71.032V12.4H69.032V14.4ZM60.2 103.824L58.7858 102.41V102.41L60.2 103.824ZM34.256 110.656C27.9739 110.656 22.2213 109.507 16.9732 107.233L15.3828 110.903C21.1747 113.413 27.4741 114.656 34.256 114.656V110.656ZM17.0102 107.249C11.8618 104.893 7.6613 101.595 4.37244 97.3544L1.21156 99.8056C4.9147 104.581 9.63821 108.275 15.3458 110.887L17.0102 107.249ZM4.32844 99.8604L16.7484 84.9564L13.6756 82.3956L1.25556 97.2996L4.32844 99.8604ZM13.6221 84.8893C16.3989 88.5279 19.3754 91.3794 22.57 93.376L24.69 89.984C21.9966 88.3006 19.3611 85.8161 16.8019 82.4627L13.6221 84.8893ZM22.6089 93.3997C25.86 95.33 29.3864 96.302 33.152 96.302V92.302C30.1096 92.302 27.288 91.5259 24.6511 89.9603L22.6089 93.3997ZM33.152 96.302C38.1045 96.302 42.1563 94.8364 44.9198 91.5983C47.6315 88.4209 48.814 83.8676 48.814 78.294H44.814C44.814 83.3924 43.7195 86.8431 41.8772 89.0017C40.0867 91.0996 37.3075 92.302 33.152 92.302V96.302ZM48.814 78.294V32.34H44.814V78.294H48.814ZM46.814 30.34H12.866V34.34H46.814V30.34ZM14.866 32.34V14.4H10.866V32.34H14.866ZM12.866 16.4H69.032V12.4H12.866V16.4ZM67.032 14.4V77.052H71.032V14.4H67.032ZM67.032 77.052C67.032 88.7142 64.1612 97.0343 58.7858 102.41L61.6142 105.238C68.0148 98.8377 71.032 89.3098 71.032 77.052H67.032ZM58.7858 102.41C53.3943 107.801 45.3344 110.656 34.256 110.656V114.656C45.9936 114.656 55.2297 111.623 61.6142 105.238L58.7858 102.41ZM107.362 108.516L106.468 110.305L106.475 110.308L106.481 110.312L107.362 108.516ZM96.1842 97.614L94.4222 98.5602L94.4259 98.5672L94.4296 98.574L96.1842 97.614ZM92.1822 36.756V34.756H90.1822V36.756H92.1822ZM113.71 36.756H115.71V34.756H113.71V36.756ZM117.574 89.196L116.069 90.513L116.091 90.538L116.114 90.5623L117.574 89.196ZM137.584 91.404L138.529 93.167L138.553 93.1541L138.576 93.1405L137.584 91.404ZM143.656 84.78L145.445 85.6744L145.45 85.6635L145.456 85.6525L143.656 84.78ZM145.864 36.756V34.756H143.864V36.756H145.864ZM167.392 36.756H169.392V34.756H167.392V36.756ZM167.392 111V113H169.392V111H167.392ZM146.968 111H144.968V113H146.968V111ZM146.968 90.576L148.662 89.5125L144.968 83.6298V90.576H146.968ZM150.694 96.51L152.496 97.3786L152.976 96.3827L152.388 95.4465L150.694 96.51ZM139.654 108.24L140.602 110.001L140.614 109.995L139.654 108.24ZM123.922 110.104C118.022 110.104 112.81 108.961 108.243 106.72L106.481 110.312C111.666 112.855 117.494 114.104 123.922 114.104V110.104ZM108.257 106.727C103.852 104.525 100.419 101.187 97.9387 96.654L94.4296 98.574C97.2851 103.793 101.304 107.723 106.468 110.305L108.257 106.727ZM97.9461 96.6677C95.4799 92.0754 94.1822 86.1255 94.1822 78.708H90.1822C90.1822 86.5624 91.5524 93.2166 94.4222 98.5602L97.9461 96.6677ZM94.1822 78.708V36.756H90.1822V78.708H94.1822ZM92.1822 38.756H113.71V34.756H92.1822V38.756ZM111.71 36.756V75.534H115.71V36.756H111.71ZM111.71 75.534C111.71 81.9174 113.035 87.045 116.069 90.513L119.079 87.879C116.962 85.459 115.71 81.4785 115.71 75.534H111.71ZM116.114 90.5623C119.242 93.9069 123.548 95.474 128.752 95.474V91.474C124.388 91.474 121.242 90.1891 119.035 87.8297L116.114 90.5623ZM128.752 95.474C132.349 95.474 135.625 94.7223 138.529 93.167L136.64 89.641C134.391 90.8457 131.779 91.474 128.752 91.474V95.474ZM138.576 93.1405C141.532 91.4514 143.816 88.9314 145.445 85.6744L141.867 83.8856C140.552 86.5165 138.788 88.4126 136.592 89.6675L138.576 93.1405ZM145.456 85.6525C147.096 82.2691 147.864 78.1774 147.864 73.464H143.864C143.864 77.7666 143.16 81.2189 141.857 83.9074L145.456 85.6525ZM147.864 73.464V36.756H143.864V73.464H147.864ZM145.864 38.756H167.392V34.756H145.864V38.756ZM165.392 36.756V111H169.392V36.756H165.392ZM167.392 109H146.968V113H167.392V109ZM148.968 111V90.576H144.968V111H148.968ZM145.274 91.6395L149 97.5735L152.388 95.4465L148.662 89.5125L145.274 91.6395ZM148.893 95.6414C146.584 100.429 143.193 104.024 138.694 106.485L140.614 109.995C145.867 107.12 149.836 102.895 152.496 97.3786L148.893 95.6414ZM138.706 106.479C134.228 108.89 129.312 110.104 123.922 110.104V114.104C129.94 114.104 135.512 112.742 140.602 110.001L138.706 106.479ZM251.194 39.24L250.272 41.0144L250.293 41.0254L250.314 41.0358L251.194 39.24ZM262.234 50.004L260.48 50.964L260.484 50.9711L260.488 50.9781L262.234 50.004ZM266.236 111V113H268.236V111H266.236ZM244.708 111H242.708V113H244.708V111ZM240.706 58.56L239.222 59.9006L239.234 59.9135L239.246 59.9263L240.706 58.56ZM220.42 56.49L221.339 58.2664L221.35 58.2606L221.362 58.2547L220.42 56.49ZM214.072 62.976L212.306 62.0377L212.295 62.0595L212.284 62.0816L214.072 62.976ZM211.864 111V113H213.864V111H211.864ZM190.336 111H188.336V113H190.336V111ZM190.336 36.756V34.756H188.336V36.756H190.336ZM210.898 36.756H212.898V34.756H210.898V36.756ZM210.898 57.318L209.2 58.3746L212.898 64.318V57.318H210.898ZM207.034 51.108L205.272 50.1617L204.725 51.1817L205.336 52.1646L207.034 51.108ZM218.488 39.654L219.435 41.416L218.488 39.654ZM235.462 37.652C241.073 37.652 245.993 38.7897 250.272 41.0144L252.117 37.4656C247.195 34.9063 241.628 33.652 235.462 33.652V37.652ZM250.314 41.0358C254.611 43.1423 257.997 46.4258 260.48 50.964L263.989 49.044C261.136 43.8302 257.162 39.9377 252.075 37.4442L250.314 41.0358ZM260.488 50.9781C262.939 55.373 264.236 61.1704 264.236 68.496H268.236C268.236 60.7336 266.866 54.203 263.981 49.0299L260.488 50.9781ZM264.236 68.496V111H268.236V68.496H264.236ZM266.236 109H244.708V113H266.236V109ZM246.708 111V71.808H242.708V111H246.708ZM246.708 71.808C246.708 65.5822 245.326 60.571 242.167 57.1937L239.246 59.9263C241.422 62.253 242.708 66.0738 242.708 71.808H246.708ZM242.191 57.2194C239.146 53.8485 234.867 52.282 229.666 52.282V56.282C234.034 56.282 237.115 57.5675 239.222 59.9006L242.191 57.2194ZM229.666 52.282C225.964 52.282 222.554 53.0854 219.479 54.7253L221.362 58.2547C223.807 56.9506 226.561 56.282 229.666 56.282V52.282ZM219.502 54.7136C216.433 56.3006 214.039 58.7758 212.306 62.0377L215.839 63.9143C217.234 61.2882 219.072 59.4394 221.339 58.2664L219.502 54.7136ZM212.284 62.0816C210.629 65.3912 209.864 69.4976 209.864 74.292H213.864C213.864 69.8864 214.572 66.4488 215.861 63.8704L212.284 62.0816ZM209.864 74.292V111H213.864V74.292H209.864ZM211.864 109H190.336V113H211.864V109ZM192.336 111V36.756H188.336V111H192.336ZM190.336 38.756H210.898V34.756H190.336V38.756ZM208.898 36.756V57.318H212.898V36.756H208.898ZM212.597 56.2614L208.732 50.0514L205.336 52.1646L209.2 58.3746L212.597 56.2614ZM208.796 52.0543C211.278 47.4324 214.813 43.8981 219.435 41.416L217.542 37.892C212.228 40.7459 208.126 44.8476 205.272 50.1617L208.796 52.0543ZM219.435 41.416C224.077 38.923 229.403 37.652 235.462 37.652V33.652C228.826 33.652 222.836 35.049 217.542 37.892L219.435 41.416ZM288.75 111H286.75V113H288.75V111ZM288.75 36.756V34.756H286.75V36.756H288.75ZM310.278 36.756H312.278V34.756H310.278V36.756ZM310.278 111V113H312.278V111H310.278ZM289.854 22.956L288.496 24.4235L289.854 22.956ZM289.854 5.844L291.213 7.31152V7.31152L289.854 5.844ZM309.174 5.706L307.846 7.20082L307.861 7.21482L307.878 7.22849L309.174 5.706ZM309.174 22.956L310.561 24.3977L310.562 24.3966L309.174 22.956ZM290.75 111V36.756H286.75V111H290.75ZM288.75 38.756H310.278V34.756H288.75V38.756ZM308.278 36.756V111H312.278V36.756H308.278ZM310.278 109H288.75V113H310.278V109ZM299.514 24.406C295.972 24.406 293.266 23.3892 291.213 21.4885L288.496 24.4235C291.411 27.1228 295.145 28.406 299.514 28.406V24.406ZM291.213 21.4885C289.141 19.5694 288.128 17.2504 288.128 14.4H284.128C284.128 18.3576 285.6 21.7426 288.496 24.4235L291.213 21.4885ZM288.128 14.4C288.128 11.5496 289.141 9.23062 291.213 7.31152L288.496 4.37647C285.6 7.05737 284.128 10.4424 284.128 14.4H288.128ZM291.213 7.31152C293.266 5.41078 295.972 4.39399 299.514 4.39399V0.393991C295.145 0.393991 291.411 1.67721 288.496 4.37648L291.213 7.31152ZM299.514 4.39399C303.079 4.39399 305.795 5.3781 307.846 7.20082L310.503 4.21118C307.586 1.61789 303.862 0.393991 299.514 0.393991V4.39399ZM307.878 7.22849C309.894 8.9461 310.9 11.139 310.9 13.986H314.9C314.9 10.025 313.423 6.6979 310.471 4.18351L307.878 7.22849ZM310.9 13.986C310.9 17.0552 309.862 19.5171 307.787 21.5154L310.562 24.3966C313.455 21.6108 314.9 18.0928 314.9 13.986H310.9ZM307.788 21.5143C305.847 23.3806 303.166 24.406 299.514 24.406V28.406C303.959 28.406 307.718 27.1314 310.561 24.3977L307.788 21.5143ZM347.472 107.136L346.515 108.892L346.526 108.898L347.472 107.136ZM332.982 93.612L331.27 94.645L331.279 94.661L331.289 94.6769L332.982 93.612ZM332.982 54.144L331.282 53.0913L331.277 53.0989L332.982 54.144ZM347.472 40.62L348.409 42.3869L348.419 42.3818L347.472 40.62ZM389.562 40.62L388.616 42.3818L388.626 42.3873L388.636 42.3927L389.562 40.62ZM404.052 93.612L405.757 94.6571L405.761 94.6511L405.765 94.645L404.052 93.612ZM389.562 107.136L388.616 105.374L389.562 107.136ZM378.246 91.956L379.251 93.6856L378.246 91.956ZM385.008 84.918L386.764 85.8757L386.77 85.8648L386.776 85.8538L385.008 84.918ZM385.008 62.838L383.252 63.7957L385.008 62.838ZM378.246 55.8L377.242 57.5296L378.246 55.8ZM358.926 55.8L359.931 57.5296L358.926 55.8ZM352.026 62.838L350.293 61.8401L350.282 61.8601L350.27 61.8803L352.026 62.838ZM352.026 84.918L350.259 85.8538L350.275 85.8852L350.293 85.9159L352.026 84.918ZM358.926 91.956L359.931 90.2264L358.926 91.956ZM368.586 110.104C360.961 110.104 354.256 108.51 348.419 105.374L346.526 108.898C353.017 112.386 360.388 114.104 368.586 114.104V110.104ZM348.43 105.38C342.65 102.227 338.076 97.9539 334.675 92.5471L331.289 94.6769C335.064 100.678 340.151 105.421 346.515 108.892L348.43 105.38ZM334.695 92.579C331.403 87.1218 329.738 80.9068 329.738 73.878H325.738C325.738 81.5692 327.569 88.5102 331.27 94.645L334.695 92.579ZM329.738 73.878C329.738 66.7517 331.406 60.5437 334.687 55.1891L331.277 53.0989C327.567 59.1523 325.738 66.1003 325.738 73.878H329.738ZM334.683 55.1967C338.082 49.7049 342.648 45.4422 348.409 42.3869L346.535 38.8531C340.153 42.2378 335.058 46.9911 331.282 53.0913L334.683 55.1967ZM348.419 42.3818C354.256 39.2456 360.961 37.652 368.586 37.652V33.652C360.388 33.652 353.017 35.3704 346.526 38.8582L348.419 42.3818ZM368.586 37.652C376.115 37.652 382.776 39.2438 388.616 42.3818L390.509 38.8582C384.021 35.3722 376.697 33.652 368.586 33.652V37.652ZM388.636 42.3927C394.493 45.4521 399.048 49.6682 402.347 55.0511L405.757 52.9609C402.065 46.9358 396.96 42.2279 390.488 38.8473L388.636 42.3927ZM402.347 55.0511C405.627 60.4018 407.296 66.6546 407.296 73.878H411.296C411.296 66.0134 409.47 59.0182 405.757 52.9609L402.347 55.0511ZM407.296 73.878C407.296 80.9068 405.631 87.1218 402.34 92.579L405.765 94.645C409.465 88.5102 411.296 81.5692 411.296 73.878H407.296ZM402.347 92.5669C399.045 97.9549 394.483 102.222 388.616 105.374L390.509 108.898C396.97 105.426 402.068 100.677 405.757 94.6571L402.347 92.5669ZM388.616 105.374C382.776 108.512 376.115 110.104 368.586 110.104V114.104C376.697 114.104 384.021 112.384 390.509 108.898L388.616 105.374ZM368.586 96.44C372.495 96.44 376.067 95.5341 379.251 93.6856L377.242 90.2264C374.722 91.6899 371.854 92.44 368.586 92.44V96.44ZM379.251 93.6856C382.435 91.8367 384.942 89.2166 386.764 85.8757L383.252 83.9603C381.763 86.6914 379.762 88.7633 377.242 90.2264L379.251 93.6856ZM386.776 85.8538C388.612 82.3861 389.492 78.3727 389.492 73.878H385.492C385.492 77.8473 384.717 81.1939 383.241 83.9822L386.776 85.8538ZM389.492 73.878C389.492 69.3017 388.616 65.2748 386.764 61.8803L383.252 63.7957C384.713 66.4732 385.492 69.8063 385.492 73.878H389.492ZM386.764 61.8803C384.942 58.5394 382.435 55.9193 379.251 54.0704L377.242 57.5296C379.762 58.9927 381.763 61.0646 383.252 63.7957L386.764 61.8803ZM379.251 54.0704C376.067 52.2219 372.495 51.316 368.586 51.316V55.316C371.854 55.316 374.722 56.0661 377.242 57.5296L379.251 54.0704ZM368.586 51.316C364.677 51.316 361.106 52.2219 357.922 54.0704L359.931 57.5296C362.451 56.0661 365.319 55.316 368.586 55.316V51.316ZM357.922 54.0704C354.748 55.9133 352.204 58.5202 350.293 61.8401L353.76 63.8359C355.344 61.0838 357.4 58.9987 359.931 57.5296L357.922 54.0704ZM350.27 61.8803C348.419 65.2748 347.542 69.3017 347.542 73.878H351.542C351.542 69.8063 352.322 66.4732 353.782 63.7957L350.27 61.8803ZM347.542 73.878C347.542 78.3727 348.423 82.3861 350.259 85.8538L353.794 83.9822C352.318 81.1939 351.542 77.8473 351.542 73.878H347.542ZM350.293 85.9159C352.204 89.2358 354.748 91.8427 357.922 93.6856L359.931 90.2264C357.4 88.7573 355.344 86.6722 353.76 83.9201L350.293 85.9159ZM357.922 93.6856C361.106 95.5341 364.677 96.44 368.586 96.44V92.44C365.319 92.44 362.451 91.6899 359.931 90.2264L357.922 93.6856ZM426.686 111H424.686V113H426.686V111ZM426.686 36.756V34.756H424.686V36.756H426.686ZM447.248 36.756H449.248V34.756H447.248V36.756ZM447.248 57.732L445.443 58.5935L449.248 57.732H447.248ZM444.35 51.66L442.507 50.8839L442.158 51.7113L442.545 52.5215L444.35 51.66ZM454.976 39.792L455.936 41.5465L455.949 41.5396L455.961 41.5325L454.976 39.792ZM472.778 35.652H474.778V33.652H472.778V35.652ZM472.778 55.524L472.579 57.5141L474.778 57.734V55.524H472.778ZM470.294 55.386L470.046 57.3706L470.169 57.386H470.294V55.386ZM453.596 60.354L454.953 61.8236L454.954 61.8222L453.596 60.354ZM448.214 111V113H450.214V111H448.214ZM428.686 111V36.756H424.686V111H428.686ZM426.686 38.756H447.248V34.756H426.686V38.756ZM445.248 36.756V57.732H449.248V36.756H445.248ZM449.053 56.8705L446.155 50.7985L442.545 52.5215L445.443 58.5935L449.053 56.8705ZM446.193 52.4361C448.23 47.598 451.467 43.9921 455.936 41.5465L454.016 38.0375C448.733 40.9279 444.886 45.234 442.507 50.8839L446.193 52.4361ZM455.961 41.5325C460.471 38.9799 466.047 37.652 472.778 37.652V33.652C465.525 33.652 459.233 35.0841 453.991 38.0515L455.961 41.5325ZM470.778 35.652V55.524H474.778V35.652H470.778ZM472.977 53.5339C472.007 53.4369 471.111 53.386 470.294 53.386V57.386C470.949 57.386 471.709 57.4271 472.579 57.5141L472.977 53.5339ZM470.542 53.4014C469.715 53.298 468.85 53.248 467.948 53.248V57.248C468.702 57.248 469.401 57.2899 470.046 57.3706L470.542 53.4014ZM467.948 53.248C461.65 53.248 456.351 55.0813 452.238 58.8858L454.954 61.8222C458.201 58.8187 462.47 57.248 467.948 57.248V53.248ZM452.239 58.8844C448.085 62.7189 446.214 68.5609 446.214 75.948H450.214C450.214 69.1671 451.931 64.6131 454.953 61.8236L452.239 58.8844ZM446.214 75.948V111H450.214V75.948H446.214ZM448.214 109H426.686V113H448.214V109Z" fill="white" mask="url(#path-1-outside-1_3614_18577)"/>
</svg>
