<svg width="24" height="24" viewBox="0 0 24 24" fill="none" xmlns="http://www.w3.org/2000/svg">
<g clip-path="url(#clip0_2103_85622)">
<path d="M13.2899 9.29018L9.28994 13.2902C9.19621 13.3831 9.12182 13.4937 9.07105 13.6156C9.02028 13.7375 8.99414 13.8682 8.99414 14.0002C8.99414 14.1322 9.02028 14.2629 9.07105 14.3848C9.12182 14.5066 9.19621 14.6172 9.28994 14.7102C9.3829 14.8039 9.4935 14.8783 9.61536 14.9291C9.73722 14.9798 9.86793 15.006 9.99994 15.006C10.132 15.006 10.2627 14.9798 10.3845 14.9291C10.5064 14.8783 10.617 14.8039 10.7099 14.7102L14.7099 10.7102C14.8982 10.5219 15.004 10.2665 15.004 10.0002C15.004 9.73388 14.8982 9.47849 14.7099 9.29018C14.5216 9.10188 14.2662 8.99609 13.9999 8.99609C13.7336 8.99609 13.4782 9.10188 13.2899 9.29018Z" fill="#121212"/>
<path d="M12.2795 17.3999L10.9995 18.6699C10.281 19.4104 9.31498 19.8604 8.28583 19.9342C7.25668 20.0079 6.23638 19.7003 5.41954 19.0699C4.98781 18.7142 4.63551 18.2718 4.38538 17.7714C4.13526 17.271 3.99287 16.7238 3.96743 16.1649C3.94198 15.6061 4.03404 15.0481 4.23766 14.5271C4.44128 14.006 4.75193 13.5335 5.14954 13.1399L6.56954 11.7099C6.66327 11.617 6.73767 11.5064 6.78843 11.3845C6.8392 11.2627 6.86534 11.132 6.86534 10.9999C6.86534 10.8679 6.8392 10.7372 6.78843 10.6154C6.73767 10.4935 6.66327 10.3829 6.56954 10.2899C6.47658 10.1962 6.36598 10.1218 6.24412 10.071C6.12226 10.0203 5.99155 9.99414 5.85954 9.99414C5.72753 9.99414 5.59683 10.0203 5.47497 10.071C5.35311 10.1218 5.24251 10.1962 5.14954 10.2899L3.87954 11.5699C2.8097 12.6059 2.15213 13.995 2.02891 15.4791C1.90569 16.9633 2.3252 18.4417 3.20954 19.6399C3.73442 20.3209 4.39818 20.8823 5.15673 21.287C5.91528 21.6917 6.75125 21.9303 7.60912 21.9871C8.46699 22.0438 9.32711 21.9174 10.1324 21.6161C10.9376 21.3149 11.6695 20.8458 12.2795 20.2399L13.6995 18.8199C13.8878 18.6316 13.9936 18.3762 13.9936 18.1099C13.9936 17.8436 13.8878 17.5882 13.6995 17.3999C13.5112 17.2116 13.2558 17.1058 12.9895 17.1058C12.7232 17.1058 12.4678 17.2116 12.2795 17.3999Z" fill="#121212"/>
<path d="M19.6591 3.21955C18.4526 2.32601 16.962 1.90224 15.4659 2.02737C13.9698 2.15251 12.5704 2.818 11.5291 3.89955L10.4491 4.99955C10.3256 5.08929 10.2224 5.20395 10.1461 5.3361C10.0698 5.46826 10.0221 5.61497 10.006 5.76674C9.99 5.91851 10.006 6.07195 10.0531 6.21714C10.1001 6.36232 10.1771 6.49601 10.2791 6.60955C10.372 6.70328 10.4826 6.77767 10.6045 6.82844C10.7264 6.87921 10.8571 6.90535 10.9891 6.90535C11.1211 6.90535 11.2518 6.87921 11.3736 6.82844C11.4955 6.77767 11.6061 6.70328 11.6991 6.60955L12.9991 5.29955C13.7137 4.55587 14.6785 4.10338 15.7072 4.02951C16.7359 3.95563 17.7555 4.26561 18.5691 4.89955C19.004 5.25535 19.3591 5.6988 19.6112 6.20101C19.8633 6.70322 20.0068 7.25292 20.0323 7.81428C20.0578 8.37564 19.9647 8.93607 19.7591 9.45905C19.5535 9.98202 19.24 10.4558 18.8391 10.8495L17.4191 12.2795C17.3253 12.3725 17.2509 12.4831 17.2002 12.605C17.1494 12.7268 17.1233 12.8575 17.1233 12.9895C17.1233 13.1216 17.1494 13.2523 17.2002 13.3741C17.2509 13.496 17.3253 13.6066 17.4191 13.6995C17.512 13.7933 17.6226 13.8677 17.7445 13.9184C17.8664 13.9692 17.9971 13.9953 18.1291 13.9953C18.2611 13.9953 18.3918 13.9692 18.5136 13.9184C18.6355 13.8677 18.7461 13.7933 18.8391 13.6995L20.2591 12.2795C20.8632 11.6697 21.3309 10.9384 21.6311 10.1341C21.9313 9.32982 22.0573 8.47095 22.0005 7.61435C21.9438 6.75776 21.7057 5.92299 21.3021 5.16534C20.8984 4.40769 20.3384 3.74445 19.6591 3.21955Z" fill="#121212"/>
</g>
<defs>
<clipPath id="clip0_2103_85622">
<rect width="24" height="24" fill="white"/>
</clipPath>
</defs>
</svg>
