<svg width="25" height="24" viewBox="0 0 25 24" fill="none" xmlns="http://www.w3.org/2000/svg">
<g clip-path="url(#clip0_171_260)">
<path d="M22.5 12C22.5 10.6868 22.2413 9.38642 21.7388 8.17317C21.2362 6.95991 20.4997 5.85752 19.5711 4.92893C18.6425 4.00035 17.5401 3.26375 16.3268 2.7612C15.1136 2.25866 13.8132 2 12.5 2C9.84784 2 7.3043 3.05357 5.42893 4.92893C3.55357 6.8043 2.5 9.34784 2.5 12C2.5 14.6522 3.55357 17.1957 5.42893 19.0711C7.3043 20.9464 9.84784 22 12.5 22C15.1522 22 17.6957 20.9464 19.5711 19.0711C21.4464 17.1957 22.5 14.6522 22.5 12ZM20.43 11H17.5C17.3351 8.64814 16.5293 6.38635 15.17 4.46C16.5665 4.95597 17.7977 5.83007 18.7265 6.98484C19.6553 8.13962 20.245 9.52967 20.43 11ZM9.58 13H15.5C15.2441 15.4706 14.1911 17.7908 12.5 19.61C10.8101 17.7984 9.78119 15.4693 9.58 13ZM9.58 11C9.81289 8.54183 10.8376 6.22572 12.5 4.4C14.2047 6.20612 15.2601 8.52804 15.5 11H9.58ZM9.94 4.43C8.57355 6.36702 7.7548 8.63672 7.57 11H4.57C4.7589 9.5115 5.36261 8.10612 6.31217 6.94437C7.26172 5.78262 8.51886 4.91133 9.94 4.43ZM4.57 13H7.57C7.73469 15.3613 8.54788 17.6313 9.92 19.56C8.50397 19.0763 7.25199 18.2052 6.30627 17.0456C5.36055 15.886 4.75902 14.4844 4.57 13ZM15.12 19.55C16.4884 17.6207 17.3107 15.3578 17.5 13H20.45C20.2609 14.4802 19.6615 15.8781 18.7196 17.0356C17.7778 18.193 16.5309 19.064 15.12 19.55Z" fill="#333334"/>
</g>
<defs>
<clipPath id="clip0_171_260">
<rect width="24" height="24" fill="white" transform="translate(0.5)"/>
</clipPath>
</defs>
</svg>
