<svg width="74" height="43" viewBox="0 0 74 43" fill="none" xmlns="http://www.w3.org/2000/svg">
<g clip-path="url(#clip0_1428_8441)">
<path d="M20.9518 43C32.5232 43 41.9036 33.3741 41.9036 21.5C41.9036 9.62588 32.5232 0 20.9518 0C9.38044 0 0 9.62588 0 21.5C0 33.3741 9.38044 43 20.9518 43Z" fill="#84DD2C"/>
<path d="M9.25166 24.3943L13.5314 8.0625H19.3682L15.0879 24.3943C14.0103 29.6429 21.7033 30.6298 22.8707 24.691L26.7614 8.0625H32.9873L29.0967 24.691C25.594 40.5277 6.13514 36.075 9.25166 24.3943Z" fill="white"/>
<path d="M34.5445 33.8708C34.2938 33.8418 33.9486 33.8051 33.3958 33.5802C32.9296 33.3497 32.4892 32.9265 32.2303 32.4275C31.8827 31.8678 31.7641 31.0442 31.9972 30.122L33.8847 22.3505C33.8847 22.101 33.9635 21.8969 34.121 21.7381C34.2786 21.5794 34.4812 21.5 34.7289 21.5C34.9765 21.5 35.1791 21.5794 35.3367 21.7381C35.4943 21.8969 35.5731 22.101 35.5731 22.3505L33.6288 30.3526C33.5459 30.8438 33.5513 31.4759 33.8619 31.7359C34.1096 32.042 34.6743 32.1989 35.0345 32.1989H35.6085C35.8111 32.1989 36.0176 32.2442 36.1526 32.4029C36.299 32.5617 36.3912 32.796 36.3912 33.0455C36.3912 33.2949 36.2389 33.5029 36.0475 33.6617C35.8674 33.8205 35.6284 33.8664 35.3384 33.8998C35.1105 33.9261 34.7952 33.8998 34.5445 33.8708ZM31.9987 26.2627C31.7623 26.2627 31.5709 26.1946 31.4246 26.0585C31.2783 25.9225 31.2051 25.7524 31.2051 25.5483C31.2051 25.3215 31.2783 25.14 31.4246 25.004C31.5709 24.8679 31.7623 24.7998 31.9987 24.7998H36.2176C36.454 24.7998 36.6453 24.8679 36.7916 25.004C36.938 25.14 37.0111 25.3215 37.0111 25.5483C37.0111 25.7524 36.938 25.9225 36.7916 26.0585C36.6453 26.1946 36.53 26.2627 36.2936 26.2627H31.9987ZM42.8763 33.8319C41.942 33.8319 41.109 33.6335 40.3774 33.2366C39.657 32.8283 39.0886 32.2727 38.6721 31.5696C38.2669 30.8552 38.0643 30.0388 38.0643 29.1203C38.0643 28.1904 38.2556 27.374 38.6384 26.6709C39.0323 25.9565 39.5726 25.4008 40.2592 25.004C40.9458 24.5957 41.7338 24.3916 42.623 24.3916C43.501 24.3916 44.2552 24.5901 44.8855 24.9869C45.5158 25.3725 45.9942 25.9111 46.3206 26.6028C46.6584 27.2832 46.8272 28.0714 46.8272 28.9672C46.8272 29.1826 46.754 29.3641 46.6077 29.5115C46.4613 29.6475 46.2756 29.7156 46.0505 29.7156H39.2461V28.3548H45.9999L45.3076 28.8311C45.2963 28.2641 45.1838 27.7595 44.9699 27.3172C44.756 26.8637 44.4521 26.5065 44.0582 26.2456C43.6642 25.9848 43.1858 25.8544 42.623 25.8544C41.9814 25.8544 41.4298 25.9962 40.9684 26.2797C40.5181 26.5631 40.1748 26.9544 39.9384 27.4533C39.7021 27.9409 39.5839 28.4966 39.5839 29.1203C39.5839 29.7439 39.7245 30.2996 40.006 30.7872C40.2874 31.2748 40.6757 31.6604 41.171 31.9438C41.6662 32.2273 42.2347 32.3691 42.8763 32.3691C43.2252 32.3691 43.5798 32.3067 43.94 32.182C44.3115 32.0459 44.6097 31.8928 44.8349 31.7227C45.0037 31.598 45.1838 31.5356 45.3752 31.5356C45.5778 31.5243 45.7522 31.5809 45.8986 31.7057C46.0899 31.8758 46.1912 32.0629 46.2025 32.267C46.2137 32.4711 46.1237 32.6469 45.9323 32.7943C45.5496 33.1005 45.0712 33.3499 44.4972 33.5427C43.9344 33.7355 43.3941 33.8319 42.8763 33.8319ZM53.2031 33.7809C52.3814 33.7809 51.6441 33.5767 50.9913 33.1685C50.3384 32.749 49.8206 32.1876 49.4379 31.4846C49.0665 30.7702 48.8807 29.965 48.8807 29.0692C48.8807 28.1734 49.0834 27.3683 49.4886 26.6539C49.905 25.9395 50.4622 25.3782 51.1601 24.9699C51.8693 24.5504 52.6628 24.3406 53.5408 24.3406C54.4188 24.3406 55.2067 24.5504 55.9046 24.9699C56.6024 25.3782 57.154 25.9395 57.5592 26.6539C57.9757 27.3683 58.184 28.1734 58.184 29.0692H57.5255C57.5255 29.965 57.3341 30.7702 56.9514 31.4846C56.58 32.1876 56.0678 32.749 55.4149 33.1685C54.7621 33.5767 54.0248 33.7809 53.2031 33.7809ZM53.5408 32.25C54.1149 32.25 54.627 32.1139 55.0773 31.8418C55.5275 31.5583 55.8821 31.1784 56.141 30.7021C56.3998 30.2145 56.5293 29.6702 56.5293 29.0692C56.5293 28.4569 56.3998 27.9126 56.141 27.4363C55.8821 26.9487 55.5275 26.5688 55.0773 26.2967C54.627 26.0132 54.1149 25.8714 53.5408 25.8714C52.978 25.8714 52.4658 26.0132 52.0043 26.2967C51.554 26.5688 51.1939 26.9487 50.9237 27.4363C50.6648 27.9126 50.5354 28.4569 50.5354 29.0692C50.5354 29.6702 50.6648 30.2145 50.9237 30.7021C51.1939 31.1784 51.554 31.5583 52.0043 31.8418C52.4658 32.1139 52.978 32.25 53.5408 32.25ZM57.3229 33.7298C57.0752 33.7298 56.867 33.6505 56.6981 33.4917C56.5405 33.3216 56.4618 33.1118 56.4618 32.8623V30.2599L56.7826 28.4569L58.184 29.0692V32.8623C58.184 33.1118 58.0995 33.3216 57.9307 33.4917C57.7731 33.6505 57.5705 33.7298 57.3229 33.7298ZM73.1392 34.0417C72.8915 34.0417 72.6833 33.9623 72.5144 33.8035C72.3568 33.6334 72.2781 33.4236 72.2781 33.1742V28.3095C72.2781 27.5951 72.1036 27.0678 71.7547 26.7276C71.4057 26.3761 70.9499 26.2003 70.387 26.2003C69.8017 26.2003 69.3177 26.4044 68.935 26.8126C68.5635 27.2209 68.3778 27.7425 68.3778 28.3775H66.9764C66.9764 27.6404 67.134 26.9941 67.4492 26.4384C67.7643 25.8714 68.2033 25.4292 68.7662 25.1117C69.3402 24.7942 69.993 24.6354 70.7247 24.6354C71.3663 24.6354 71.9347 24.7772 72.43 25.0607C72.9253 25.3441 73.308 25.7637 73.5782 26.3194C73.8595 26.8637 74.0003 27.527 74.0003 28.3095V33.1742C74.0003 33.4236 73.9215 33.6334 73.7639 33.8035C73.6063 33.9623 73.3981 34.0417 73.1392 34.0417ZM61.8774 34.0417C61.6298 34.0417 61.4215 33.9623 61.2527 33.8035C61.0951 33.6334 61.0163 33.4236 61.0163 33.1742V25.605C61.0163 25.3441 61.0951 25.1344 61.2527 24.9756C61.4215 24.8169 61.6298 24.7375 61.8774 24.7375C62.1363 24.7375 62.3445 24.8169 62.5021 24.9756C62.6597 25.1344 62.7385 25.3441 62.7385 25.605V33.1742C62.7385 33.4236 62.6597 33.6334 62.5021 33.8035C62.3445 33.9623 62.1363 34.0417 61.8774 34.0417ZM67.5167 34.0417C67.2691 34.0417 67.0608 33.9623 66.892 33.8035C66.7344 33.6334 66.6556 33.4236 66.6556 33.1742V28.3095C66.6556 27.5951 66.4811 27.0678 66.1322 26.7276C65.7833 26.3761 65.3274 26.2003 64.7646 26.2003C64.1793 26.2003 63.6952 26.4044 63.3125 26.8126C62.9298 27.2209 62.7385 27.7425 62.7385 28.3775H61.6748C61.6748 27.6404 61.8211 26.9941 62.1138 26.4384C62.4064 25.8714 62.8117 25.4292 63.3294 25.1117C63.8472 24.7942 64.4381 24.6354 65.1023 24.6354C65.7439 24.6354 66.3123 24.7772 66.8076 25.0607C67.3029 25.3441 67.6856 25.7637 67.9557 26.3194C68.2371 26.8637 68.3778 27.527 68.3778 28.3095V33.1742C68.3778 33.4236 68.299 33.6334 68.1414 33.8035C67.9838 33.9623 67.7756 34.0417 67.5167 34.0417Z" fill="white"/>
</g>
<defs>
<clipPath id="clip0_1428_8441">
<rect width="74" height="43" fill="white"/>
</clipPath>
</defs>
</svg>
