<svg width="74" height="43" viewBox="0 0 74 43" fill="none" xmlns="http://www.w3.org/2000/svg">
<g clip-path="url(#clip0_1_988)">
<path d="M20.9666 43C32.5462 43 41.9333 33.3741 41.9333 21.5C41.9333 9.62588 32.5462 0 20.9666 0C9.38708 0 0 9.62588 0 21.5C0 33.3741 9.38708 43 20.9666 43Z" fill="#84DD2C"/>
<path d="M9.36271 24.3656L13.6637 8.0625H19.5296L15.2279 24.3656C14.145 29.605 21.8763 30.5901 23.0495 24.6618L26.9595 8.0625H33.2164L29.3064 24.6618C25.7864 40.4706 6.23069 36.0258 9.36271 24.3656Z" fill="white"/>
<path d="M31.6034 33.1996C31.033 33.1996 30.5241 33.0706 30.0765 32.8126C29.6289 32.5474 29.2751 32.1891 29.0152 31.7376C28.7625 31.2861 28.6362 30.7772 28.6362 30.2111C28.6362 29.6377 28.7589 29.1253 29.0044 28.6738C29.257 28.2223 29.5964 27.8676 30.0223 27.6096C30.4555 27.3444 30.9536 27.2118 31.5168 27.2118C31.9499 27.2118 32.3506 27.2978 32.7188 27.4698C33.087 27.6346 33.4119 27.8855 33.6934 28.2223C33.7801 28.3226 33.8089 28.4266 33.7801 28.5341C33.7584 28.6344 33.6934 28.724 33.5851 28.8028C33.4985 28.8601 33.401 28.8816 33.2928 28.8673C33.1917 28.8458 33.0978 28.7885 33.0112 28.6953C32.6141 28.251 32.116 28.0288 31.5168 28.0288C31.1197 28.0288 30.7695 28.122 30.4663 28.3083C30.1703 28.4946 29.9393 28.7526 29.7732 29.0823C29.6072 29.4048 29.5242 29.7811 29.5242 30.2111C29.5242 30.6267 29.6108 30.9994 29.7841 31.3291C29.9646 31.6516 30.21 31.9096 30.5205 32.1031C30.8381 32.2894 31.1991 32.3826 31.6034 32.3826C31.8777 32.3826 32.1232 32.3467 32.3398 32.2751C32.5636 32.2034 32.7621 32.0923 32.9354 31.9418C33.0365 31.863 33.1375 31.82 33.2386 31.8128C33.3397 31.8056 33.4335 31.8343 33.5202 31.8988C33.614 31.9848 33.6682 32.0816 33.6826 32.1891C33.697 32.2966 33.6609 32.3933 33.5743 32.4793C33.0473 32.9595 32.3903 33.1996 31.6034 33.1996ZM38.1083 33.1996C37.5236 33.1996 37.0038 33.0706 36.5489 32.8126C36.1013 32.5546 35.7476 32.1998 35.4877 31.7483C35.2278 31.2968 35.0978 30.7844 35.0978 30.2111C35.0978 29.6306 35.2278 29.1146 35.4877 28.6631C35.7476 28.2116 36.1013 27.8568 36.5489 27.5988C37.0038 27.3408 37.5236 27.2118 38.1083 27.2118C38.6859 27.2118 39.1985 27.3408 39.6461 27.5988C40.0937 27.8568 40.4475 28.2116 40.7074 28.6631C40.9673 29.1146 41.1008 29.6306 41.1081 30.2111C41.1081 30.7844 40.9781 31.2968 40.7182 31.7483C40.4583 32.1998 40.1009 32.5546 39.6461 32.8126C39.1985 33.0706 38.6859 33.1996 38.1083 33.1996ZM38.1083 32.3826C38.5126 32.3826 38.8736 32.2894 39.1913 32.1031C39.5089 31.9096 39.758 31.6516 39.9385 31.3291C40.119 30.9994 40.2092 30.6267 40.2092 30.2111C40.2092 29.7954 40.119 29.4227 39.9385 29.0931C39.758 28.7634 39.5089 28.5054 39.1913 28.3191C38.8736 28.1256 38.5126 28.0288 38.1083 28.0288C37.7041 28.0288 37.3395 28.1256 37.0146 28.3191C36.6969 28.5054 36.4443 28.7634 36.2565 29.0931C36.0761 29.4227 35.9858 29.7954 35.9858 30.2111C35.9858 30.6267 36.0761 30.9994 36.2565 31.3291C36.4443 31.6516 36.6969 31.9096 37.0146 32.1031C37.3395 32.2894 37.7041 32.3826 38.1083 32.3826ZM50.6679 33.1458C50.5307 33.1458 50.4188 33.1064 50.3322 33.0276C50.2455 32.9416 50.2022 32.8305 50.2022 32.6943V29.6091C50.2022 29.1146 50.0759 28.7311 49.8232 28.4588C49.5705 28.1865 49.242 28.0503 48.8377 28.0503C48.4118 28.0503 48.0616 28.1936 47.7873 28.4803C47.5202 28.767 47.3866 29.1432 47.3866 29.6091H46.5961C46.6033 29.1289 46.708 28.7096 46.9101 28.3513C47.1123 27.9858 47.3902 27.7027 47.744 27.5021C48.1049 27.3014 48.5128 27.2011 48.9677 27.2011C49.3864 27.2011 49.7582 27.2978 50.0831 27.4913C50.408 27.6848 50.6606 27.9643 50.8411 28.3298C51.0288 28.6881 51.1227 29.1146 51.1227 29.6091V32.6943C51.1227 32.8305 51.0794 32.9416 50.9927 33.0276C50.9061 33.1064 50.7978 33.1458 50.6679 33.1458ZM43.1957 33.1458C43.0513 33.1458 42.9358 33.1064 42.8491 33.0276C42.7697 32.9416 42.73 32.8305 42.73 32.6943V27.7278C42.73 27.5916 42.7697 27.4806 42.8491 27.3946C42.9358 27.3086 43.0513 27.2656 43.1957 27.2656C43.3328 27.2656 43.4411 27.3086 43.5205 27.3946C43.6072 27.4806 43.6505 27.5916 43.6505 27.7278V32.6943C43.6505 32.8305 43.6072 32.9416 43.5205 33.0276C43.4411 33.1064 43.3328 33.1458 43.1957 33.1458ZM46.9318 33.1458C46.8018 33.1458 46.6935 33.1064 46.6069 33.0276C46.5203 32.9416 46.4769 32.8305 46.4769 32.6943V29.6091C46.4769 29.1146 46.347 28.7311 46.0871 28.4588C45.8344 28.1865 45.5095 28.0503 45.1124 28.0503C44.6865 28.0503 44.3364 28.1901 44.062 28.4696C43.7877 28.7491 43.6505 29.1146 43.6505 29.5661H43.0224C43.0368 29.1002 43.1379 28.6917 43.3256 28.3406C43.5133 27.9822 43.7732 27.7027 44.1053 27.5021C44.4374 27.3014 44.8164 27.2011 45.2424 27.2011C45.6611 27.2011 46.0329 27.2978 46.3578 27.4913C46.6827 27.6848 46.9354 27.9643 47.1159 28.3298C47.2963 28.6881 47.3866 29.1146 47.3866 29.6091V32.6943C47.3866 32.8305 47.3433 32.9416 47.2566 33.0276C47.1772 33.1064 47.0689 33.1458 46.9318 33.1458ZM55.5231 33.1996C54.9744 33.1996 54.4835 33.0706 54.0503 32.8126C53.6171 32.5474 53.2742 32.1891 53.0215 31.7376C52.7688 31.2861 52.6425 30.7772 52.6425 30.2111C52.6425 29.6377 52.7724 29.1253 53.0323 28.6738C53.2995 28.2223 53.6604 27.8676 54.1153 27.6096C54.5701 27.3444 55.0827 27.2118 55.653 27.2118C56.2161 27.2118 56.7215 27.3444 57.1691 27.6096C57.624 27.8676 57.9813 28.2223 58.2412 28.6738C58.5083 29.1253 58.6455 29.6377 58.6527 30.2111L58.2845 30.3938C58.2845 30.9241 58.1618 31.4007 57.9163 31.8236C57.6781 32.2464 57.3496 32.5832 56.9309 32.8341C56.5194 33.0777 56.0501 33.1996 55.5231 33.1996ZM55.653 32.3826C56.0573 32.3826 56.4147 32.2894 56.7251 32.1031C57.0428 31.9096 57.2919 31.648 57.4723 31.3183C57.66 30.9886 57.7539 30.6196 57.7539 30.2111C57.7539 29.7954 57.66 29.4263 57.4723 29.1038C57.2919 28.7741 57.0428 28.5126 56.7251 28.3191C56.4147 28.1256 56.0573 28.0288 55.653 28.0288C55.256 28.0288 54.895 28.1256 54.5701 28.3191C54.2524 28.5126 53.9998 28.7741 53.8121 29.1038C53.6243 29.4263 53.5305 29.7954 53.5305 30.2111C53.5305 30.6196 53.6243 30.9886 53.8121 31.3183C53.9998 31.648 54.2524 31.9096 54.5701 32.1031C54.895 32.2894 55.256 32.3826 55.653 32.3826ZM58.1871 33.1458C58.0571 33.1458 57.9452 33.1064 57.8514 33.0276C57.7647 32.9416 57.7214 32.8305 57.7214 32.6943V30.9206L57.9272 29.9853L58.6527 30.2111V32.6943C58.6527 32.8305 58.6094 32.9416 58.5228 33.0276C58.4361 33.1064 58.3242 33.1458 58.1871 33.1458ZM65.3319 33.1458C65.1948 33.1458 65.0829 33.1028 64.9962 33.0168C64.9096 32.9308 64.8663 32.8233 64.8663 32.6943V29.9531C64.8663 29.5159 64.7833 29.1611 64.6172 28.8888C64.4584 28.6093 64.2382 28.4015 63.9566 28.2653C63.6751 28.122 63.3538 28.0503 62.9928 28.0503C62.6535 28.0503 62.3467 28.1184 62.0723 28.2546C61.8052 28.3836 61.5922 28.5627 61.4334 28.7921C61.2746 29.0142 61.1952 29.2722 61.1952 29.5661H60.5671C60.5815 29.1146 60.7006 28.7132 60.9244 28.3621C61.1555 28.0037 61.4623 27.7206 61.8449 27.5128C62.2276 27.305 62.6535 27.2011 63.1228 27.2011C63.6281 27.2011 64.0794 27.3086 64.4764 27.5236C64.8807 27.7314 65.1984 28.0396 65.4294 28.4481C65.6677 28.8566 65.7868 29.3582 65.7868 29.9531V32.6943C65.7868 32.8233 65.7435 32.9308 65.6568 33.0168C65.5702 33.1028 65.4619 33.1458 65.3319 33.1458ZM60.7403 33.1458C60.596 33.1458 60.4804 33.1064 60.3938 33.0276C60.3144 32.9416 60.2747 32.8305 60.2747 32.6943V27.7278C60.2747 27.5845 60.3144 27.4734 60.3938 27.3946C60.4804 27.3086 60.596 27.2656 60.7403 27.2656C60.8775 27.2656 60.9858 27.3086 61.0652 27.3946C61.1519 27.4734 61.1952 27.5845 61.1952 27.7278V32.6943C61.1952 32.8305 61.1519 32.9416 61.0652 33.0276C60.9858 33.1064 60.8775 33.1458 60.7403 33.1458ZM70.3212 33.1996C69.7508 33.1996 69.2382 33.0706 68.7834 32.8126C68.3286 32.5474 67.9676 32.1891 67.7005 31.7376C67.4406 31.2861 67.3106 30.7736 67.3106 30.2003C67.3106 29.6341 67.437 29.1253 67.6897 28.6738C67.9423 28.2223 68.2853 27.8676 68.7184 27.6096C69.1516 27.3444 69.6425 27.2118 70.1912 27.2118C70.6605 27.2118 71.0828 27.3121 71.4583 27.5128C71.8409 27.7063 72.1513 27.9643 72.3896 28.2868V25.2123C72.3896 25.069 72.4329 24.9579 72.5195 24.8791C72.6134 24.7931 72.7253 24.7501 72.8552 24.7501C72.9924 24.7501 73.1043 24.7931 73.1909 24.8791C73.2776 24.9579 73.3209 25.069 73.3209 25.2123V30.2326C73.3064 30.7916 73.1657 31.2968 72.8985 31.7483C72.6386 32.1926 72.2849 32.5474 71.8373 32.8126C71.3897 33.0706 70.8843 33.1996 70.3212 33.1996ZM70.3212 32.3826C70.7255 32.3826 71.0828 32.2858 71.3933 32.0923C71.7109 31.8988 71.96 31.6408 72.1405 31.3183C72.3282 30.9886 72.4221 30.616 72.4221 30.2003C72.4221 29.7918 72.3282 29.4227 72.1405 29.0931C71.96 28.7634 71.7109 28.5054 71.3933 28.3191C71.0828 28.1256 70.7255 28.0288 70.3212 28.0288C69.9241 28.0288 69.5631 28.1256 69.2383 28.3191C68.9206 28.5054 68.6679 28.7634 68.4802 29.0931C68.2925 29.4227 68.1986 29.7918 68.1986 30.2003C68.1986 30.616 68.2925 30.9886 68.4802 31.3183C68.6679 31.6408 68.9206 31.8988 69.2383 32.0923C69.5631 32.2858 69.9241 32.3826 70.3212 32.3826Z" fill="white"/>
</g>
<defs>
<clipPath id="clip0_1_988">
<rect width="74" height="43" fill="white"/>
</clipPath>
</defs>
</svg>
